<svg width="60" height="60" viewBox="0 0 60 60" fill="none" xmlns="http://www.w3.org/2000/svg">
<path d="M52.6948 0H7.31341C3.27432 0 0 3.27432 0 7.31341V52.6947C0 56.7338 3.27432 60.0082 7.31341 60.0082H52.6948C56.7338 60.0082 60.0082 56.7338 60.0082 52.6947V7.31341C60.0082 3.27432 56.7338 0 52.6948 0Z" fill="#F8FBFD"/>
<path d="M50.5492 2.4834H9.65019C5.69208 2.4834 2.4834 5.69208 2.4834 9.6502V50.2217C2.4834 54.1799 5.69208 57.3885 9.65019 57.3885H50.5492C54.5073 57.3885 57.716 54.1799 57.716 50.2217V9.6502C57.716 5.69208 54.5073 2.4834 50.5492 2.4834Z" fill="#025AF3"/>
<path d="M51.1667 2.4834H9.03272C5.41563 2.4834 2.4834 5.41563 2.4834 9.03272V50.8392C2.4834 54.4563 5.41563 57.3885 9.03272 57.3885H51.1667C54.7838 57.3885 57.716 54.4563 57.716 50.8392V9.03272C57.716 5.41563 54.7838 2.4834 51.1667 2.4834Z" fill="url(#paint0_radial_329_239)"/>
<path d="M57.5522 51.0029V8.8689C57.5522 5.25181 54.62 2.31958 51.0029 2.31958L9.19643 2.31958C5.57933 2.31958 2.6471 5.25181 2.6471 8.8689V51.0029C2.6471 54.62 5.57933 57.5522 9.19643 57.5522H51.0029C54.62 57.5522 57.5522 54.62 57.5522 51.0029Z" fill="url(#paint1_radial_329_239)"/>
<path d="M50.9006 2.44556H9.18956C5.464 2.44556 2.44385 5.46572 2.44385 9.19127V50.7899C2.44385 54.5154 5.464 57.5356 9.18956 57.5356H50.9006C54.6261 57.5356 57.6463 54.5154 57.6463 50.7899V9.19127C57.6463 5.46572 54.6261 2.44556 50.9006 2.44556Z" fill="url(#paint2_radial_329_239)"/>
<path d="M50.7992 2.5791H9.29062C5.58314 2.5791 2.57764 5.58461 2.57764 9.29208V50.6888C2.57764 54.3963 5.58314 57.4018 9.29062 57.4018H50.7992C54.5067 57.4018 57.5122 54.3963 57.5122 50.6888V9.29208C57.5122 5.58461 54.5067 2.5791 50.7992 2.5791Z" fill="url(#paint3_radial_329_239)"/>
<path d="M2.69922 9.2859L2.69922 50.6952C2.69922 54.3938 5.69753 57.3921 9.39614 57.3921H50.6938C54.3924 57.3921 57.3907 54.3938 57.3907 50.6952V9.2859C57.3907 5.58729 54.3924 2.58898 50.6938 2.58898H9.39614C5.69753 2.58898 2.69922 5.58729 2.69922 9.2859Z" fill="url(#paint4_radial_329_239)"/>
<path d="M34.7521 37.8325H14.6626V46.1362H34.7521V37.8325Z" fill="white"/>
<defs>
<radialGradient id="paint0_radial_329_239" cx="0" cy="0" r="1" gradientUnits="userSpaceOnUse" gradientTransform="translate(59.2021 35.4082) scale(8.84159 52.9949)">
<stop stop-color="#010000" stop-opacity="0.455013"/>
<stop offset="0.7" stop-color="#010000" stop-opacity="0.118252"/>
<stop offset="1" stop-color="#010000" stop-opacity="0"/>
</radialGradient>
<radialGradient id="paint1_radial_329_239" cx="0" cy="0" r="1" gradientUnits="userSpaceOnUse" gradientTransform="translate(32.2743 58.5362) rotate(90) scale(9.27821 52.9949)">
<stop stop-color="#010000" stop-opacity="0.455013"/>
<stop offset="0.7" stop-color="#010000" stop-opacity="0.118252"/>
<stop offset="1" stop-color="#010000" stop-opacity="0"/>
</radialGradient>
<radialGradient id="paint2_radial_329_239" cx="0" cy="0" r="1" gradientUnits="userSpaceOnUse" gradientTransform="translate(9.31859 10.0676) scale(62.537 52.1473)">
<stop offset="0.0584339" stop-color="#FFFDFD" stop-opacity="0.637532"/>
<stop offset="0.245085" stop-color="#E1DFDF" stop-opacity="0.452442"/>
<stop offset="0.515687" stop-color="#D7D5D5" stop-opacity="0.213368"/>
<stop offset="0.789062" stop-color="#D7D5D5" stop-opacity="0.123393"/>
<stop offset="1" stop-color="#D7D5D5" stop-opacity="0"/>
</radialGradient>
<radialGradient id="paint3_radial_329_239" cx="0" cy="0" r="1" gradientUnits="userSpaceOnUse" gradientTransform="translate(14.2223 5.97841) scale(68.4266 2.90214)">
<stop stop-color="#D7D5D5" stop-opacity="0.305913"/>
<stop offset="1" stop-color="#D7D5D5" stop-opacity="0"/>
</radialGradient>
<radialGradient id="paint4_radial_329_239" cx="0" cy="0" r="1" gradientUnits="userSpaceOnUse" gradientTransform="translate(6.78198 -3.68862) rotate(-90) scale(48.3953 5.32829)">
<stop stop-color="#D7D5D5" stop-opacity="0.411311"/>
<stop offset="1" stop-color="#D7D5D5" stop-opacity="0"/>
</radialGradient>
</defs>
</svg>
