<svg width="1" height="29" viewBox="0 0 1 29" fill="none" xmlns="http://www.w3.org/2000/svg">
<path d="M0 0H1V1H0V0Z" fill="#8FA36A"/>
<path d="M0 1H1V2H0V1Z" fill="#E9F3C8"/>
<path d="M0 2H1V3H0V2Z" fill="#E0E7B8"/>
<path d="M0 3H1V4H0V3Z" fill="#C2CD95"/>
<path d="M0 4H1V5H0V4Z" fill="#B8C78D"/>
<path d="M0 5H1V6H0V5Z" fill="#AEBE86"/>
<path d="M0 6H1V7H0V6Z" fill="#AAB883"/>
<path d="M0 7H1V8H0V7Z" fill="#AAB883"/>
<path d="M0 8H1V9H0V8Z" fill="#AAB883"/>
<path d="M0 9H1V10H0V9Z" fill="#AAB883"/>
<path d="M0 10H1V11H0V10Z" fill="#AAB883"/>
<path d="M0 11H1V12H0V11Z" fill="#AAB883"/>
<path d="M0 12H1V13H0V12Z" fill="#AAB883"/>
<path d="M0 13H1V14H0V13Z" fill="#AAB883"/>
<path d="M0 14H1V15H0V14Z" fill="#AEBE86"/>
<path d="M0 15H1V16H0V15Z" fill="#AEBE86"/>
<path d="M0 16H1V17H0V16Z" fill="#AEBE86"/>
<path d="M0 17H1V18H0V17Z" fill="#B8C78D"/>
<path d="M0 18H1V19H0V18Z" fill="#B8C78D"/>
<path d="M0 19H1V20H0V19Z" fill="#B8C78D"/>
<path d="M0 20H1V21H0V20Z" fill="#B8C78D"/>
<path d="M0 21H1V22H0V21Z" fill="#B8C78D"/>
<path d="M0 22H1V23H0V22Z" fill="#C2CD95"/>
<path d="M0 23H1V24H0V23Z" fill="#C2CD95"/>
<path d="M0 24H1V25H0V24Z" fill="#C2CD95"/>
<path d="M0 25H1V26H0V25Z" fill="#B8C78D"/>
<path d="M0 26H1V27H0V26Z" fill="#B8C78D"/>
<path d="M0 27H1V28H0V27Z" fill="#A4B07C"/>
<path d="M0 28H1V29H0V28Z" fill="#8FA36A"/>
</svg>
